Coordinates
version=1
nRows=7
nColumns=42
inDegrees=yes

Units are S.I. units (second, meters, Newtons, ...)
If the header above contains a line with 'inDegrees', this indicates whether rotational values are in degrees (yes) or radians (no).

endheader
time	pelvis_tilt	pelvis_list	pelvis_rotation	pelvis_tx	pelvis_ty	pelvis_tz	hip_flexion_r	hip_adduction_r	hip_rotation_r	knee_angle_r	knee_adduction_r	knee_angle_r_beta	ankle_angle_r	subtalar_angle_r	mtp_angle_r	hip_flexion_l	hip_adduction_l	hip_rotation_l	knee_angle_l	knee_adduction_l	knee_angle_l_beta	ankle_angle_l	subtalar_angle_l	mtp_angle_l	lumbar_extension	lumbar_bending	lumbar_rotation	arm_flex_r	arm_add_r	arm_rot_r	elbow_flex_r	pro_sup_r	wrist_flex_r	wrist_dev_r	arm_flex_l	arm_add_l	arm_rot_l	elbow_flex_l	pro_sup_l	wrist_flex_l	wrist_dev_l
      1.00000000	      5.41271433	     -0.42577605	     -1.68924742	     -0.61921838	      0.93387901	     -0.09270376	     11.01160520	     -8.21201717	    -23.53461118	     34.25452387	      1.82244398	      0.59785423	     15.05551611	     14.60850158	     -9.68284712	     -3.96074985	     -2.47556802	    -17.33045987	     27.24116828	      1.12166460	      0.47544808	     23.22406426	      3.04814941	     -9.68284712	    -16.53755636	      0.06984296	     -1.60183849	      7.63971881	     -9.24723150	     -0.48561153	     35.96645357	     90.00000001	      0.00000000	      0.00000000	    -13.63548616	     -8.99553938	     -3.77208840	     52.06879995	     90.00000001	      0.00000000	      0.00000000
      1.01000000	      5.26059055	     -0.38492303	     -1.76716767	     -0.61731368	      0.93365187	     -0.09144825	     11.08124783	     -8.16574078	    -23.53082954	     34.28144223	      1.80788959	      0.59832404	     15.09253564	     14.60370105	     -9.68004822	     -3.94970729	     -2.50180792	    -17.36062929	     27.21519255	      1.11837901	      0.47499472	     23.22672596	      3.05011139	     -9.68004822	    -16.52481394	      0.13281866	     -1.70586745	      7.85321300	     -9.18957046	     -0.47368926	     36.08663439	     90.00000001	      0.00000000	      0.00000000	    -13.55397217	     -8.97990443	     -3.73174535	     52.09633930	     90.00000001	      0.00000000	      0.00000000
      1.02000000	      4.99338372	     -0.41577870	     -1.87400384	     -0.61534417	      0.93313181	     -0.09000428	     11.38116408	     -7.92451588	    -23.39960927	     34.46472398	      1.58094096	      0.60152291	     15.47755940	     14.49947544	     -9.65037713	     -3.78081506	     -2.66768338	    -17.53869219	     27.29759452	      1.10244663	      0.47643290	     23.27204128	      3.13062710	     -9.65037713	    -16.35978515	      0.27526568	     -1.81282355	      7.99155303	     -9.16282945	     -0.31244233	     36.37568273	     90.00000001	      0.00000000	      0.00000000	    -13.61288312	     -9.06312764	     -3.47340769	     52.24399678	     90.00000001	      0.00000000	      0.00000000
      1.03000000	      4.84855002	     -0.37163247	     -1.91522492	     -0.61347235	      0.93296407	     -0.08882217	     11.43853400	     -7.87753604	    -23.34112083	     34.49304793	      1.58386161	      0.60201726	     15.50649044	     14.49813235	     -9.64715115	     -3.76041535	     -2.68722241	    -17.56627952	     27.27801945	      1.07026460	      0.47609125	     23.27132400	      3.14460651	     -9.64715115	    -16.36092442	      0.35286599	     -1.95855194	      8.20127983	     -9.10577460	     -0.28551185	     36.51985718	     90.00000001	      0.00000000	      0.00000000	    -13.53163513	     -9.05352297	     -3.42229352	     52.26631355	     90.00000001	      0.00000000	      0.00000000
      1.04000000	      4.70191790	     -0.35303324	     -1.92944095	     -0.61152083	      0.93278209	     -0.08765118	     11.49962538	     -7.77848786	    -23.18973329	     34.54199544	      1.56952237	      0.60287155	     15.60012505	     14.46989337	     -9.64233801	     -3.73255207	     -2.73442972	    -17.59949404	     27.27254331	      0.98864155	      0.47599568	     23.25078451	      3.17458467	     -9.64233801	    -16.34226816	      0.47736119	     -2.17032243	      8.39100609	     -9.04412299	     -0.23245559	     36.72213899	     90.00000001	      0.00000000	      0.00000000	    -13.52394913	     -9.07195991	     -3.34465368	     52.28310549	     90.00000001	      0.00000000	      0.00000000
      1.05000000	      4.55146188	     -0.31730547	     -1.95455099	     -0.60969203	      0.93267638	     -0.08649342	     11.55581213	     -7.70606933	    -23.07169364	     34.55396432	      1.57813157	      0.60308045	     15.69484581	     14.42736865	     -9.63889867	     -3.68323476	     -2.76497090	    -17.63573351	     27.28051444	      0.93331302	      0.47613480	     23.22416055	      3.20304025	     -9.63889867	    -16.34523050	      0.57546506	     -2.33422154	      8.56704273	     -8.99220900	     -0.17693499	     36.90379271	     90.00000001	      0.00000000	      0.00000000	    -13.45167765	     -9.07261315	     -3.27697943	     52.33213818	     90.00000001	      0.00000000	      0.00000000
      1.06000000	      4.39595015	     -0.32017234	     -1.93871592	     -0.60779955	      0.93254456	     -0.08534354	     11.59004569	     -7.54541895	    -22.77306134	     34.55608001	      1.61614648	      0.60311737	     15.91938759	     14.28848643	     -9.63176393	     -3.57378122	     -2.83372111	    -17.69776147	     27.37625336	      0.78418710	      0.47780576	     23.14093860	      3.27807795	     -9.63176393	    -16.32179050	      0.74168615	     -2.57438621	      8.71319987	     -8.95756781	     -0.03852243	     37.22581961	     90.00000001	      0.00000000	      0.00000000	    -13.49611586	     -9.11988064	     -3.15529742	     52.39008791	     90.00000001	      0.00000000	      0.00000000
